<svg xmlns="http://www.w3.org/2000/svg" viewBox="0 0 2000 784.3" width="50" height="24">
  <path fill="#00ADD8" d="M437.1 391.2c0 126.9-63.5 214.3-176.4 214.3-115.3 0-184-89-184-211.3 0-129.1 77.2-212.8 189.3-212.8 55.3 0 102.3 20.5 134.1 59.9l-55.3 43.2c-20.5-23.5-47-36.4-78-36.4-69.7 0-111.4 54.6-111.4 146.3 0 88.7 40.2 144.8 107.6 144.8 63.6 0 100.8-39.4 105.3-95.5H256.1v-63.7h181v11.2zm383.1 113.7c0 74.3-59.1 100.8-132.6 100.8-73.5 0-132.6-26.5-132.6-100.8V188.4h78.8v310.8c0 30.3 22 41.7 53.8 41.7s53.8-11.4 53.8-41.7V188.4h78.8v316.5zM1223.4 133c62.1 0 112.9 50.8 112.9 112.9s-50.8 112.9-112.9 112.9-112.9-50.8-112.9-112.9S1161.3 133 1223.4 133zm0 161.4c26.8 0 48.5-21.7 48.5-48.5s-21.7-48.5-48.5-48.5-48.5 21.7-48.5 48.5 21.7 48.5 48.5 48.5zm317.9-15.3l17.4-44.7h1.5l17.4 44.7h-36.3zm191.1 316.5h-84.9L1609 486.2l-38.6 99.3h-83.4L1594.6 122h29l108.8 473.6zm164.5 0V263.4h1.5l146.3 322.2h41.7V122h78.8v473.6h-1.5L1975.3 273.1h-41.7v312.5h-78.8V595.6z"/>
</svg>